<svg width="32" height="32" fill="none" xmlns="http://www.w3.org/2000/svg"><path fill="#EEE" d="M0 0h32v32H0z"/><path d="M7.642 20.176a3.907 3.907 0 0 1-.685-2.485v-3.592a3.968 3.968 0 0 1 .676-2.51c.453-.571 1.228-.855 2.324-.852 1.096.003 1.838.254 2.227.752a3.17 3.17 0 0 1 .65 2.15v.843H10.81v-.915a4.688 4.688 0 0 0-.064-.718.798.798 0 0 0-.23-.455.768.768 0 0 0-.563-.177.728.728 0 0 0-.425.066.707.707 0 0 0-.309.293 2.569 2.569 0 0 0-.166 1.053v4.56c-.023.36.043.722.19 1.053a.737.737 0 0 0 .71.35.673.673 0 0 0 .401-.069.654.654 0 0 0 .284-.285c.119-.337.17-.693.152-1.05v-.957h2.026v.828c.06.782-.153 1.56-.602 2.208-.43.527-1.174.786-2.231.786s-1.884-.288-2.34-.877Zm7.825-9.229h2.344l1.978 9.895h-1.948l-.351-2.186h-1.642l-.396 2.172h-1.978l1.993-9.88Zm1.805 6.465-.623-3.977-.618 3.977h1.241Zm3.898-4.974h-1.591v-1.49h5.263v1.49h-1.571v8.404h-2.106l.005-8.404Z" fill="#111"/></svg>